<?xml version="1.0" encoding="UTF-8" standalone="no"?>
<svg
   xmlns:osb="http://www.openswatchbook.org/uri/2009/osb"
   xmlns:dc="http://purl.org/dc/elements/1.1/"
   xmlns:cc="http://creativecommons.org/ns#"
   xmlns:rdf="http://www.w3.org/1999/02/22-rdf-syntax-ns#"
   xmlns:svg="http://www.w3.org/2000/svg"
   xmlns="http://www.w3.org/2000/svg"
   xmlns:xlink="http://www.w3.org/1999/xlink"
   xmlns:sodipodi="http://sodipodi.sourceforge.net/DTD/sodipodi-0.dtd"
   xmlns:inkscape="http://www.inkscape.org/namespaces/inkscape"
   inkscape:export-ydpi="100.1913"
   inkscape:export-xdpi="100.1913"
   inkscape:export-filename="/Users/dylan/projects/utah_python_logo/utahpython_utah_background.png"
   sodipodi:docname="utahpython.svg"
   inkscape:version="1.0rc1 (09960d6, 2020-04-09)"
   id="svg8"
   version="1.1"
   viewBox="0 0 200 200"
   height="200mm"
   width="200mm">
  <defs
     id="defs2">
    <linearGradient
       id="linearGradient1458"
       inkscape:collect="always">
      <stop
         id="stop1454"
         offset="0"
         style="stop-color:#5a9fd4;stop-opacity:1" />
      <stop
         id="stop1456"
         offset="1"
         style="stop-color:#306998;stop-opacity:1" />
    </linearGradient>
    <inkscape:path-effect
       only_selected="false"
       apply_with_weight="true"
       apply_no_weight="true"
       helper_size="0"
       steps="2"
       weight="33.333333"
       lpeversion="1"
       is_visible="true"
       id="path-effect6543"
       effect="bspline" />
    <linearGradient
       id="linearGradient867"
       inkscape:collect="always">
      <stop
         id="stop878"
         offset="0"
         style="stop-color:#612928;stop-opacity:1" />
      <stop
         style="stop-color:#752226;stop-opacity:1;"
         offset="0.10324942"
         id="stop1512" />
      <stop
         style="stop-color:#a91425;stop-opacity:1;"
         offset="0.17858957"
         id="stop1486" />
      <stop
         id="stop1482"
         offset="0.40573439"
         style="stop-color:#f0420e;stop-opacity:1" />
      <stop
         style="stop-color:#f27a13;stop-opacity:1;"
         offset="0.53776437"
         id="stop4101" />
      <stop
         style="stop-color:#f49516;stop-opacity:1;"
         offset="0.70618159"
         id="stop1480" />
      <stop
         style="stop-color:#ffd43b;stop-opacity:1"
         offset="0.87278831"
         id="stop1462" />
      <stop
         id="stop1490"
         offset="1"
         style="stop-color:#ffe469;stop-opacity:1;" />
      <stop
         id="stop880"
         offset="1"
         style="stop-color:#ffe873;stop-opacity:1" />
    </linearGradient>
    <linearGradient
       osb:paint="solid"
       id="linearGradient1199">
      <stop
         id="stop1197"
         offset="0"
         style="stop-color:#ff0000;stop-opacity:1;" />
    </linearGradient>
    <linearGradient
       gradientTransform="translate(1.2002048e-4,0.00212954)"
       gradientUnits="userSpaceOnUse"
       y2="93.013565"
       x2="88.514633"
       y1="50.262726"
       x1="53.708141"
       id="linearGradient1460"
       xlink:href="#linearGradient1458"
       inkscape:collect="always" />
    <linearGradient
       gradientTransform="translate(1.2002048e-4,0.00212954)"
       gradientUnits="userSpaceOnUse"
       y2="61.261608"
       x2="138.52127"
       y1="226.4344"
       x1="64.016052"
       id="linearGradient1552"
       xlink:href="#linearGradient867"
       inkscape:collect="always" />
  </defs>
  <sodipodi:namedview
     inkscape:pagecheckerboard="true"
     showborder="true"
     inkscape:showpageshadow="false"
     inkscape:window-maximized="0"
     inkscape:window-y="23"
     inkscape:window-x="0"
     inkscape:window-height="789"
     inkscape:window-width="955"
     inkscape:guide-bbox="true"
     showguides="false"
     inkscape:object-nodes="false"
     showgrid="false"
     inkscape:document-rotation="0"
     inkscape:current-layer="layer2"
     inkscape:document-units="mm"
     inkscape:cy="357.71986"
     inkscape:cx="384.24315"
     inkscape:zoom="0.75575672"
     inkscape:pageshadow="2"
     inkscape:pageopacity="0"
     borderopacity="1.0"
     bordercolor="#666666"
     pagecolor="#ffffff"
     id="base"
     inkscape:snap-global="false" />
  <metadata
     id="metadata5">
    <rdf:RDF>
      <cc:Work
         rdf:about="">
        <dc:format>image/svg+xml</dc:format>
        <dc:type
           rdf:resource="http://purl.org/dc/dcmitype/StillImage" />
        <dc:title></dc:title>
      </cc:Work>
    </rdf:RDF>
  </metadata>
  <g
     sodipodi:insensitive="true"
     inkscape:label="Utah Python Logo 1"
     id="layer1"
     inkscape:groupmode="layer">
    <path
       id="rect4098-6"
       style="opacity:1;fill:#606060;fill-opacity:1;stroke:none;stroke-width:2.11025;stroke-miterlimit:0;stroke-dasharray:none;stroke-opacity:1"
       d="m 47,8.002247 h 69 c 0,0 13.22826,-0.3209357 13,12.999753 V 45 h 25 c 0,0 13.01548,0.02934 13,13.002 V 179 c -0.0528,13.16185 -13,13 -13,13 H 47 c 0,0 -13.228173,-0.0729 -12.999874,-12.998 V 21 C 33.745,8.0428774 47,8.002247 47,8.002247 Z"
       inkscape:connector-curvature="0"
       sodipodi:nodetypes="cccccccccccc" />
    <path
       sodipodi:nodetypes="cccccccccccc"
       inkscape:connector-curvature="0"
       d="m 47.00012,11.00213 h 69 c 0,0 9.81298,-0.406161 10,10 v 27 h 28 c 0,0 9.81298,-0.07631 10,10 V 179.002 c -0.25171,10.05392 -10,10.00013 -10,10.00013 h -107 c 0,0 -9.812981,-0.37215 -10,-10 v -158 c -0.04014,-9.658192 10,-10 10,-10 z"
       style="opacity:1;fill:#212121;fill-opacity:1;stroke:none;stroke-width:2;stroke-miterlimit:0;stroke-dasharray:none;stroke-opacity:1"
       id="rect4098" />
  </g>
  <g
     style="display:inline"
     inkscape:label="Utah Python Logo"
     id="layer2"
     inkscape:groupmode="layer">
    <path
       sodipodi:nodetypes="zccccczzccczzccczzssssss"
       inkscape:connector-curvature="0"
       d="m 69.00012,16.00213 c -15.386297,0 -15,15 -15,15 v 9 h 26 v 5 h -26 c 0,0 -12.046765,-0.06672 -12,20 0.04677,20.066724 -0.121658,46.90421 0,67 0.121658,20.09579 15,20 15,20 h 6 v -47 c 0,0 -1.254708,-20.096748 20,-20 21.25471,0.09675 17.94419,0 28,0 10.05581,0 10,-10 10,-10 V 50.2891 31.00213 c 0,0 -0.11634,-14.812267 -20,-15 -19.883657,-0.187733 -16.613703,0 -32,0 z m -3.880792,8.671508 c 1.440606,4e-6 2.881023,0.483116 3.841429,1.449409 1.920791,1.93257 1.920791,5.797238 0,7.729661 -1.920794,1.932427 -5.762208,1.932427 -7.683166,0 -1.920951,-1.932423 -1.920913,-5.797128 0,-7.729661 0.960457,-0.966274 2.401119,-1.449415 3.841737,-1.449409 z"
       style="fill:url(#linearGradient1460);fill-opacity:1;stroke:none;stroke-width:0.193307px;stroke-linecap:butt;stroke-linejoin:miter;stroke-opacity:1"
       id="path1269" />
    <path
       sodipodi:nodetypes="ccscsscczccccscsccscssssc"
       inkscape:connector-curvature="0"
       d="m 126.00012,53.00213 v 22 c 0,0 -0.18608,15 -15,15 H 80.611035 c 0,0 -12.610915,-0.785985 -12.610915,15 v 65 c 0,15.72508 20,15 20,15 h 37 c 0,0 15.12087,1.01758 15,-15 -0.12087,-16.01758 0,-13 0,-13 h -26 v -5 h 30 c 0,0 15,0.35002 15,-20 v -59 c 0,0 0.18337,-20 -15,-20 z m 2.02829,110.34317 h 2.8e-4 c 0.007,0 0.015,-2e-5 0.0225,0 2.98895,1.4e-4 5.41187,2.4379 5.41182,5.44494 -4e-5,3.00697 -2.42294,5.44462 -5.41182,5.44476 -2.98908,1.5e-4 -5.41231,-2.43758 -5.41235,-5.44476 -8e-5,-2.99826 2.4092,-5.44494 5.38942,-5.44494 z"
       style="opacity:1;mix-blend-mode:normal;fill:url(#linearGradient1552);fill-opacity:1;stroke:none;stroke-width:2.19187;stroke-linecap:butt;stroke-linejoin:miter;stroke-miterlimit:4;stroke-dasharray:none;stroke-opacity:1"
       id="path1271" />
  </g>
</svg>
