<?xml version="1.0" encoding="UTF-8" standalone="no"?>
<svg
   xmlns:osb="http://www.openswatchbook.org/uri/2009/osb"
   xmlns:dc="http://purl.org/dc/elements/1.1/"
   xmlns:cc="http://creativecommons.org/ns#"
   xmlns:rdf="http://www.w3.org/1999/02/22-rdf-syntax-ns#"
   xmlns:svg="http://www.w3.org/2000/svg"
   xmlns="http://www.w3.org/2000/svg"
   xmlns:xlink="http://www.w3.org/1999/xlink"
   xmlns:sodipodi="http://sodipodi.sourceforge.net/DTD/sodipodi-0.dtd"
   xmlns:inkscape="http://www.inkscape.org/namespaces/inkscape"
   width="200mm"
   height="200mm"
   viewBox="0 0 200 200"
   version="1.1"
   id="svg8"
   inkscape:version="1.0rc1 (09960d6, 2020-04-09)"
   sodipodi:docname="utahpython.svg"
   inkscape:export-filename="/Users/dylan/projects/utah_python_logo/utahpython.png"
   inkscape:export-xdpi="100.191"
   inkscape:export-ydpi="100.191">
  <defs
     id="defs2">
    <linearGradient
       inkscape:collect="always"
       id="linearGradient1458">
      <stop
         style="stop-color:#5a9fd4;stop-opacity:1"
         offset="0"
         id="stop1454" />
      <stop
         style="stop-color:#306998;stop-opacity:1"
         offset="1"
         id="stop1456" />
    </linearGradient>
    <inkscape:path-effect
       effect="bspline"
       id="path-effect6543"
       is_visible="true"
       lpeversion="1"
       weight="33.333333"
       steps="2"
       helper_size="0"
       apply_no_weight="true"
       apply_with_weight="true"
       only_selected="false" />
    <linearGradient
       id="linearGradient1199"
       osb:paint="solid">
      <stop
         style="stop-color:#ff0000;stop-opacity:1;"
         offset="0"
         id="stop1197" />
    </linearGradient>
    <linearGradient
       inkscape:collect="always"
       xlink:href="#linearGradient4671"
       id="linearGradient1475"
       gradientUnits="userSpaceOnUse"
       gradientTransform="matrix(0.55160333,0,0,0.58622087,31.328342,29.921645)"
       x1="88.626617"
       y1="242.08549"
       x2="197.74135"
       y2="76.392044" />
    <linearGradient
       id="linearGradient4671">
      <stop
         style="stop-color:#9f3a02;stop-opacity:1"
         offset="0"
         id="stop4673" />
      <stop
         id="stop1508"
         offset="0.1609056"
         style="stop-color:#b44203;stop-opacity:1" />
      <stop
         style="stop-color:#f85800;stop-opacity:1"
         offset="0.34316185"
         id="stop1510" />
      <stop
         id="stop1513"
         offset="0.51942754"
         style="stop-color:#f37100;stop-opacity:1" />
      <stop
         style="stop-color:#ff8300;stop-opacity:1"
         offset="0.6800096"
         id="stop1515" />
      <stop
         id="stop1506"
         offset="0.8556447"
         style="stop-color:#ffd43b;stop-opacity:1" />
      <stop
         style="stop-color:#ffe873;stop-opacity:1"
         offset="1"
         id="stop4675" />
    </linearGradient>
    <linearGradient
       inkscape:collect="always"
       xlink:href="#linearGradient1458"
       id="linearGradient1478"
       gradientUnits="userSpaceOnUse"
       gradientTransform="matrix(0.55160333,0,0,0.58622087,31.328342,29.921645)"
       x1="74.265556"
       y1="24.033693"
       x2="135.66525"
       y2="114.39767" />
    <linearGradient
       id="linearGradient2795">
      <stop
         style="stop-color:#b8b8b8;stop-opacity:0.49803922;"
         offset="0"
         id="stop2797" />
      <stop
         style="stop-color:#7f7f7f;stop-opacity:0;"
         offset="1"
         id="stop2799" />
    </linearGradient>
  </defs>
  <sodipodi:namedview
     inkscape:snap-global="false"
     id="base"
     pagecolor="#ffffff"
     bordercolor="#666666"
     borderopacity="1.0"
     inkscape:pageopacity="0"
     inkscape:pageshadow="2"
     inkscape:zoom="1.0824912"
     inkscape:cx="436.59301"
     inkscape:cy="382.36039"
     inkscape:document-units="mm"
     inkscape:current-layer="layer1"
     inkscape:document-rotation="0"
     showgrid="false"
     inkscape:object-nodes="false"
     showguides="false"
     inkscape:guide-bbox="true"
     inkscape:window-width="1107"
     inkscape:window-height="874"
     inkscape:window-x="565"
     inkscape:window-y="57"
     inkscape:window-maximized="0"
     inkscape:showpageshadow="false"
     showborder="true"
     inkscape:pagecheckerboard="true" />
  <metadata
     id="metadata5">
    <rdf:RDF>
      <cc:Work
         rdf:about="">
        <dc:format>image/svg+xml</dc:format>
        <dc:type
           rdf:resource="http://purl.org/dc/dcmitype/StillImage" />
        <dc:title />
      </cc:Work>
    </rdf:RDF>
  </metadata>
  <g
     inkscape:groupmode="layer"
     id="layer2"
     inkscape:label="Utah Python Logo"
     style="display:inline">
    <g
       style="display:inline"
       inkscape:groupmode="layer"
       id="layer1"
       inkscape:label="Utah Background">
      <path
         sodipodi:nodetypes="cccccccccccc"
         inkscape:connector-curvature="0"
         d="m 51,25 h 71 c 0,0 10.96628,0.268002 11,11 v 17 h 17 c 0,0 11.01431,0.303985 11,11 v 100 c -0.0489,10.60401 -11,11 -11,11 H 51 c 0,0 -11.210736,-0.58666 -11,-11 V 35.472372 C 39.764458,25.033281 51,25 51,25 Z"
         style="opacity:1;fill:#606060;fill-opacity:1;stroke:none;stroke-width:1.8198;stroke-miterlimit:0;stroke-dasharray:none;stroke-opacity:1"
         id="rect4098-6" />
      <path
         id="rect4098"
         style="opacity:1;fill:#212121;fill-opacity:1;stroke:none;stroke-width:1.72475;stroke-miterlimit:0;stroke-dasharray:none;stroke-opacity:1"
         d="m 51,28 h 71 c 0,0 7.82736,0.34939 8,8 v 20 h 20 c 0,0 8.31622,0.126298 8,8 v 100 c -0.23233,8.10009 -8,8 -8,8 H 51 c 0,0 -7.82737,-0.2432 -8,-8 V 35.474087 C 42.96296,27.692825 51,28 51,28 Z"
         inkscape:connector-curvature="0"
         sodipodi:nodetypes="cccccccccccc" />
    </g>
  </g>
  <g
     inkscape:label="Utah Python Logo Image"
     id="layer5"
     inkscape:groupmode="layer">
    <path
       inkscape:connector-curvature="0"
       style="display:inline;fill:url(#linearGradient1478);fill-opacity:1;stroke-width:1.00602"
       d="m 99.878978,42.000949 c -4.494548,0.02184 -8.786697,0.425462 -12.563373,1.128893 -11.125609,2.068907 -13.145587,6.399306 -13.145587,14.385306 v 10.547077 h 26.291172 v 3.515693 H 74.170018 64.303164 c -7.640967,0 -14.331591,4.834203 -16.42432,14.030518 -2.413968,10.541113 -2.521035,17.118924 0,28.125574 1.868846,8.19288 6.331956,14.03051 13.972923,14.03051 h 9.039516 v -12.6436 c 0,-9.13426 7.508253,-17.19143 16.424322,-17.19143 h 26.260525 c 7.30999,0 13.14559,-6.335386 13.14559,-14.062773 V 57.515148 c 0,-7.499804 -6.01081,-13.133621 -13.14559,-14.385306 -4.51643,-0.791361 -9.20261,-1.150875 -13.697152,-1.128893 z m -14.218085,8.482816 c 2.715713,0 4.933443,2.3725 4.933443,5.289666 0,2.906822 -2.21773,5.25741 -4.933443,5.25741 -2.725423,0 -4.933407,-2.350588 -4.933407,-5.25741 0,-2.917162 2.207984,-5.289666 4.933407,-5.289666 z"
       id="path1948" />
    <path
       sodipodi:nodetypes="csssssccsccccsccscsssss"
       inkscape:connector-curvature="0"
       style="display:inline;fill:url(#linearGradient1475);fill-opacity:1;stroke-width:1.00602"
       d="m 130,71.577918 4.5e-4,12.288799 c 3.5e-4,9.527338 -7.67372,17.546193 -16.42432,17.546193 H 87.315605 c -7.193204,0 -13.145587,6.48024 -13.145587,14.0628 v 26.35153 c 0,7.49985 6.195719,11.91114 13.145587,14.06278 8.322281,2.57583 16.302955,3.04132 26.260525,0 6.61891,-2.01719 13.14559,-6.07675 13.14559,-14.06278 V 131.2802 h -26.26053 v -3.51568 h 26.26053 13.14558 c 7.64095,0 10.48829,-5.61005 13.1456,-14.03051 2.74487,-8.66876 2.6281,-17.005184 0,-28.125574 -1.88834,-8.006689 -5.4949,-14.030518 -13.1456,-14.030518 z M 115.2308,138.3116 c 2.72547,0 4.93344,2.35055 4.93344,5.2574 0,2.91713 -2.20797,5.28966 -4.93344,5.28966 -2.71567,0 -4.93339,-2.37253 -4.93339,-5.28966 0,-2.90685 2.21772,-5.2574 4.93339,-5.2574 z"
       id="path1950" />
  </g>
  <g
     inkscape:groupmode="layer"
     id="layer3"
     inkscape:label="Measuring" />
  <g
     style="display:none"
     inkscape:label="Utah Background 1"
     id="layer4"
     inkscape:groupmode="layer"
     sodipodi:insensitive="true">
    <g
       transform="matrix(0.53997816,0,0,0.53997816,55.271709,37.632896)"
       id="Utah"
       stroke="none"
       stroke-width="1"
       fill="none"
       fill-rule="evenodd">
      <rect
         id="Bounds"
         x="0"
         y="0"
         width="260"
         height="275" />
      <g
         style="fill:#5395b0;fill-opacity:0.52"
         id="utah-map"
         transform="matrix(1.0382391,0,0,1.0382391,-11.935888,-3.7668802)"
         fill="#5395b0"
         fill-rule="nonzero">
        <polygon
           transform="matrix(1.064136,0,0,1.064136,-11.365098,-14.454974)"
           style="fill:#5395b0;fill-opacity:0.52"
           id="Shape"
           points="5.9,0.5 20.3,1 72.5,1.5 116.2,0.9 116.6,51.3 191.6,49.8 197.9,250.4 143.6,251.9 91.1,252.2 37.3,252 0.6,251.4 " />
      </g>
    </g>
  </g>
</svg>
