<?xml version="1.0" encoding="UTF-8" standalone="no"?>
<svg
   xmlns:osb="http://www.openswatchbook.org/uri/2009/osb"
   xmlns:dc="http://purl.org/dc/elements/1.1/"
   xmlns:cc="http://creativecommons.org/ns#"
   xmlns:rdf="http://www.w3.org/1999/02/22-rdf-syntax-ns#"
   xmlns:svg="http://www.w3.org/2000/svg"
   xmlns="http://www.w3.org/2000/svg"
   xmlns:xlink="http://www.w3.org/1999/xlink"
   xmlns:sodipodi="http://sodipodi.sourceforge.net/DTD/sodipodi-0.dtd"
   xmlns:inkscape="http://www.inkscape.org/namespaces/inkscape"
   inkscape:export-ydpi="100.1913"
   inkscape:export-xdpi="100.1913"
   inkscape:export-filename="/Users/dylan/projects/utah_python_logo/utahpython_utah_background.png"
   sodipodi:docname="utahpython.svg"
   inkscape:version="1.0rc1 (09960d6, 2020-04-09)"
   id="svg8"
   version="1.1"
   viewBox="0 0 200 200"
   height="200mm"
   width="200mm">
  <defs
     id="defs2">
    <linearGradient
       id="linearGradient1458"
       inkscape:collect="always">
      <stop
         id="stop1454"
         offset="0"
         style="stop-color:#5a9fd4;stop-opacity:1" />
      <stop
         id="stop1456"
         offset="1"
         style="stop-color:#306998;stop-opacity:1" />
    </linearGradient>
    <inkscape:path-effect
       only_selected="false"
       apply_with_weight="true"
       apply_no_weight="true"
       helper_size="0"
       steps="2"
       weight="33.333333"
       lpeversion="1"
       is_visible="true"
       id="path-effect6543"
       effect="bspline" />
    <linearGradient
       id="linearGradient867"
       inkscape:collect="always">
      <stop
         id="stop878"
         offset="0"
         style="stop-color:#612928;stop-opacity:1" />
      <stop
         style="stop-color:#752226;stop-opacity:1;"
         offset="0.10324942"
         id="stop1512" />
      <stop
         style="stop-color:#a91425;stop-opacity:1;"
         offset="0.17858957"
         id="stop1486" />
      <stop
         id="stop1482"
         offset="0.40573439"
         style="stop-color:#f0420e;stop-opacity:1" />
      <stop
         style="stop-color:#f27a13;stop-opacity:1;"
         offset="0.53776437"
         id="stop4101" />
      <stop
         style="stop-color:#f49516;stop-opacity:1;"
         offset="0.70618159"
         id="stop1480" />
      <stop
         style="stop-color:#ffd43b;stop-opacity:1"
         offset="0.87278831"
         id="stop1462" />
      <stop
         id="stop1490"
         offset="1"
         style="stop-color:#ffe469;stop-opacity:1;" />
      <stop
         id="stop880"
         offset="1"
         style="stop-color:#ffe873;stop-opacity:1" />
    </linearGradient>
    <linearGradient
       osb:paint="solid"
       id="linearGradient1199">
      <stop
         id="stop1197"
         offset="0"
         style="stop-color:#ff0000;stop-opacity:1;" />
    </linearGradient>
    <linearGradient
       gradientTransform="matrix(0.93230617,0,0,0.92392048,6.3049724,7.6091531)"
       gradientUnits="userSpaceOnUse"
       y2="93.013565"
       x2="88.514633"
       y1="50.262726"
       x1="53.708141"
       id="linearGradient1460"
       xlink:href="#linearGradient1458"
       inkscape:collect="always" />
    <linearGradient
       gradientTransform="matrix(0.93230617,0,0,0.92392048,6.3049724,7.6091531)"
       gradientUnits="userSpaceOnUse"
       y2="61.261608"
       x2="138.52127"
       y1="226.4344"
       x1="64.016052"
       id="linearGradient1552"
       xlink:href="#linearGradient867"
       inkscape:collect="always" />
  </defs>
  <sodipodi:namedview
     inkscape:pagecheckerboard="true"
     showborder="true"
     inkscape:showpageshadow="false"
     inkscape:window-maximized="0"
     inkscape:window-y="23"
     inkscape:window-x="0"
     inkscape:window-height="792"
     inkscape:window-width="1402"
     inkscape:guide-bbox="true"
     showguides="false"
     inkscape:object-nodes="false"
     showgrid="false"
     inkscape:document-rotation="0"
     inkscape:current-layer="layer2"
     inkscape:document-units="mm"
     inkscape:cy="367.81531"
     inkscape:cx="400.33133"
     inkscape:zoom="0.75575672"
     inkscape:pageshadow="2"
     inkscape:pageopacity="0"
     borderopacity="1.0"
     bordercolor="#666666"
     pagecolor="#ffffff"
     id="base"
     inkscape:snap-global="false" />
  <metadata
     id="metadata5">
    <rdf:RDF>
      <cc:Work
         rdf:about="">
        <dc:format>image/svg+xml</dc:format>
        <dc:type
           rdf:resource="http://purl.org/dc/dcmitype/StillImage" />
        <dc:title></dc:title>
      </cc:Work>
    </rdf:RDF>
  </metadata>
  <g
     style="display:inline"
     inkscape:label="Utah Python Logo"
     id="layer2"
     inkscape:groupmode="layer">
    <g
       inkscape:label="Utah Background"
       id="layer1"
       inkscape:groupmode="layer">
      <path
         id="rect4098-6"
         style="opacity:1;fill:#606060;fill-opacity:1;stroke:none;stroke-width:1.95853;stroke-miterlimit:0;stroke-dasharray:none;stroke-opacity:1"
         d="m 50.123253,15.000626 h 64.329127 c 0,0 12.33278,-0.296518 12.11998,12.010739 v 22.172243 h 23.30765 c 0,0 12.13442,0.02711 12.11998,12.012814 V 172.98896 c -0.0493,12.16049 -12.11998,12.01095 -12.11998,12.01095 H 50.123253 c 0,0 -12.332707,-0.0673 -12.119863,-12.00912 V 27.009517 C 37.765535,15.038166 50.123253,15.000626 50.123253,15.000626 Z"
         inkscape:connector-curvature="0"
         sodipodi:nodetypes="cccccccccccc" />
      <path
         sodipodi:nodetypes="cccccccccccc"
         inkscape:connector-curvature="0"
         d="m 50.123365,17.77228 h 64.329125 c 0,0 9.1487,-0.375261 9.32306,9.239204 v 24.945853 h 26.10458 c 0,0 9.1487,-0.07051 9.32305,9.239205 V 172.99079 c -0.23466,9.28903 -9.32305,9.23933 -9.32305,9.23933 H 50.123365 c 0,0 -9.148702,-0.34383 -9.323061,-9.23921 V 27.011484 c -0.03742,-8.923401 9.323061,-9.239204 9.323061,-9.239204 z"
         style="opacity:1;fill:#212121;fill-opacity:1;stroke:none;stroke-width:1.85621;stroke-miterlimit:0;stroke-dasharray:none;stroke-opacity:1"
         id="rect4098" />
    </g>
    <path
       sodipodi:nodetypes="zccccczzccczzccczzssssss"
       inkscape:connector-curvature="0"
       d="m 70.634103,22.391883 c -14.34474,0 -13.984594,13.858808 -13.984594,13.858808 v 8.315284 h 24.239963 v 4.619603 H 56.649509 c 0,0 -11.231275,-0.06164 -11.187675,18.478411 0.04361,18.540058 -0.113422,43.335761 0,61.902681 0.113423,18.56691 13.984595,18.47841 13.984595,18.47841 h 5.593837 v -43.42427 c 0,0 -1.169773,-18.567798 18.646124,-18.478411 19.8159,0.08939 16.72948,0 26.10457,0 9.3751,0 9.32306,-9.239205 9.32306,-9.239205 V 54.070317 36.250691 c 0,0 -0.10846,-13.685358 -18.64611,-13.858808 -18.537664,-0.173451 -15.489066,0 -29.833807,0 z m -3.618087,8.011784 c 1.343087,3e-6 2.685997,0.44636 3.581389,1.339138 1.790765,1.785541 1.790765,5.356187 0,7.141592 -1.790769,1.785411 -5.372142,1.785411 -7.163064,0 -1.790916,-1.785405 -1.790879,-5.356086 0,-7.141592 0.895441,-0.89276 2.238579,-1.339144 3.581675,-1.339138 z"
       style="fill:url(#linearGradient1460);fill-opacity:1;stroke:none;stroke-width:0.17941px;stroke-linecap:butt;stroke-linejoin:miter;stroke-opacity:1"
       id="path1269" />
    <path
       sodipodi:nodetypes="ccscsscczccccscsccscssssc"
       inkscape:connector-curvature="0"
       d="m 123.77556,56.576942 v 20.326252 c 0,0 -0.17348,13.858809 -13.9846,13.858809 H 81.459031 c 0,0 -11.757234,-0.726188 -11.757234,13.858807 v 60.05484 c 0,14.52873 18.646124,13.85881 18.646124,13.85881 h 34.495329 c 0,0 14.09728,0.94016 13.9846,-13.85881 -0.11269,-14.79897 0,-12.01097 0,-12.01097 h -24.23997 v -4.6196 h 27.9692 c 0,0 13.98457,0.32339 13.98457,-18.47841 V 75.055354 c 0,0 0.17097,-18.478412 -13.98457,-18.478412 z m 1.89098,101.948318 h 2.6e-4 c 0.007,0 0.0139,-2e-5 0.021,0 2.78661,1.3e-4 5.04553,2.25243 5.04549,5.0307 -4e-5,2.77819 -2.25894,5.0304 -5.04549,5.03053 -2.78673,1.4e-4 -5.04592,-2.25214 -5.04596,-5.03053 -7e-5,-2.77016 2.24611,-5.0307 5.02458,-5.0307 z"
       style="opacity:1;mix-blend-mode:normal;fill:url(#linearGradient1552);fill-opacity:1;stroke:none;stroke-width:2.03428;stroke-linecap:butt;stroke-linejoin:miter;stroke-miterlimit:4;stroke-dasharray:none;stroke-opacity:1"
       id="path1271" />
  </g>
  <g
     style="display:none"
     sodipodi:insensitive="true"
     inkscape:label="Utah Python Logo 2"
     id="layer3"
     inkscape:groupmode="layer">
    <rect
       y="0"
       x="35"
       height="15"
       width="116.16279"
       id="rect4159"
       style="opacity:1;fill:#44aa00;fill-opacity:1;stroke:none;stroke-width:1.99284;stroke-miterlimit:0;stroke-dasharray:none;stroke-opacity:1" />
    <rect
       style="opacity:1;fill:#44aa00;fill-opacity:1;stroke:none;stroke-width:1.99284;stroke-miterlimit:0;stroke-dasharray:none;stroke-opacity:1"
       id="rect4159-3"
       width="116.16279"
       height="15"
       x="35"
       y="185" />
    <rect
       style="opacity:1;fill:#44aa00;fill-opacity:1;stroke:none;stroke-width:2.94296;stroke-miterlimit:0;stroke-dasharray:none;stroke-opacity:1"
       id="rect4159-6"
       width="38"
       height="100"
       x="0"
       y="38" />
  </g>
</svg>
